<svg width="350" height="350" viewBox="0 0 350 350" fill="none" xmlns="http://www.w3.org/2000/svg">
<g clip-path="url(#clip0_210_2926)">
<path d="M84.0116 52.1904H61.2583V74.9437H84.0116V52.1904Z" fill="white" stroke="black" stroke-linecap="round" stroke-linejoin="round"/>
<path d="M72.6349 56.0776V71.0559" stroke="black" stroke-linecap="round" stroke-linejoin="round"/>
<path d="M65.1726 63.5669H79.9099" stroke="black" stroke-linecap="round" stroke-linejoin="round"/>
<path d="M262.282 132.34C266.932 135.149 272.36 136.267 277.656 137.426C282.951 138.585 288.37 139.889 292.834 142.99C297.299 146.091 300.658 151.417 299.927 156.84C299.118 162.841 293.791 167.106 288.525 170C283.687 172.658 278.46 174.789 274.374 178.519C270.287 182.25 267.528 188.191 269.408 193.42C270.686 196.975 273.787 199.482 276.75 201.794C279.714 204.105 282.821 206.601 284.119 210.148C285.416 213.695 283.98 218.537 280.345 219.441" stroke="black" stroke-linecap="round" stroke-linejoin="round"/>
<path d="M262.148 124.001C266.747 130.271 274.596 133.262 282.24 134.384C289.884 135.507 297.686 135.086 305.337 136.155C312.989 137.224 320.861 140.093 325.589 146.264C329.255 151.05 330.496 158.133 327.217 163.198C325.2 166.313 321.843 168.249 318.518 169.853C315.192 171.457 311.699 172.895 308.979 175.406C306.258 177.916 304.438 181.841 305.545 185.392C306.395 188.118 308.726 190.046 310.549 192.233C316.807 199.74 316.852 211.8 310.649 219.354" stroke="black" stroke-linecap="round" stroke-linejoin="round"/>
<path d="M214.626 332.605C249.059 332.605 276.973 325.245 276.973 316.165C276.973 307.085 249.059 299.724 214.626 299.724C180.193 299.724 152.279 307.085 152.279 316.165C152.279 325.245 180.193 332.605 214.626 332.605Z" fill="white" stroke="black" stroke-linecap="round" stroke-linejoin="round"/>
<path d="M264.611 27.4415C264.611 26.1221 264.351 24.8156 263.846 23.5967C263.341 22.3777 262.601 21.2702 261.668 20.3372C260.736 19.4043 259.628 18.6642 258.409 18.1593C257.19 17.6544 255.884 17.3945 254.564 17.3945H115.838C114.519 17.3945 113.212 17.6544 111.993 18.1593C110.774 18.6642 109.667 19.4043 108.734 20.3372C107.801 21.2702 107.061 22.3777 106.556 23.5967C106.051 24.8156 105.791 26.1221 105.791 27.4415V28.6008H264.611V27.4415Z" fill="#E9E9E9" stroke="black" stroke-linecap="round" stroke-linejoin="round"/>
<path d="M105.791 28.6006V137.113C105.791 138.433 106.051 139.739 106.556 140.958C107.061 142.177 107.801 143.285 108.734 144.218C109.667 145.151 110.774 145.891 111.993 146.396C113.212 146.9 114.519 147.16 115.838 147.16H254.564C255.884 147.16 257.19 146.9 258.409 146.396C259.628 145.891 260.736 145.151 261.668 144.218C262.601 143.285 263.341 142.177 263.846 140.958C264.351 139.739 264.611 138.433 264.611 137.113V28.6006H105.791Z" fill="white" stroke="black" stroke-linecap="round" stroke-linejoin="round"/>
<path d="M178.149 79.1924V80.7682H176.573" stroke="black" stroke-linecap="round" stroke-linejoin="round"/>
<path d="M173.326 80.7681H122.998" stroke="black" stroke-linecap="round" stroke-linejoin="round" stroke-dasharray="27.83 27.83"/>
<path d="M121.375 80.7682H119.799V79.1924" stroke="black" stroke-linecap="round" stroke-linejoin="round"/>
<path d="M119.799 76.1948V41.7227" stroke="black" stroke-linecap="round" stroke-linejoin="round" stroke-dasharray="25.69 25.69"/>
<path d="M119.799 40.2238V38.6479H121.375" stroke="black" stroke-linecap="round" stroke-linejoin="round"/>
<path d="M124.622 38.6479H174.95" stroke="black" stroke-linecap="round" stroke-linejoin="round" stroke-dasharray="27.83 27.83"/>
<path d="M176.573 38.6479H178.149V40.2238" stroke="black" stroke-linecap="round" stroke-linejoin="round"/>
<path d="M178.149 43.2212V77.6933" stroke="black" stroke-linecap="round" stroke-linejoin="round" stroke-dasharray="25.69 25.69"/>
<path d="M250.603 134.123V135.698H249.028" stroke="black" stroke-linecap="round" stroke-linejoin="round"/>
<path d="M245.781 135.698H195.453" stroke="black" stroke-linecap="round" stroke-linejoin="round" stroke-dasharray="27.83 27.83"/>
<path d="M193.829 135.698H192.253V134.123" stroke="black" stroke-linecap="round" stroke-linejoin="round"/>
<path d="M192.253 130.885V41.8428" stroke="black" stroke-linecap="round" stroke-linejoin="round" stroke-dasharray="27.75 27.75"/>
<path d="M192.253 40.2238V38.6479H193.829" stroke="black" stroke-linecap="round" stroke-linejoin="round"/>
<path d="M197.076 38.6479H247.404" stroke="black" stroke-linecap="round" stroke-linejoin="round" stroke-dasharray="27.83 27.83"/>
<path d="M249.028 38.6479H250.603V40.2238" stroke="black" stroke-linecap="round" stroke-linejoin="round"/>
<path d="M250.603 43.4614V132.503" stroke="black" stroke-linecap="round" stroke-linejoin="round" stroke-dasharray="27.75 27.75"/>
<path d="M247.766 40.791H195.091V133.555H247.766V40.791Z" fill="white" stroke="black" stroke-linecap="round" stroke-linejoin="round"/>
<path d="M178.149 134.123V135.698H176.573" stroke="black" stroke-linecap="round" stroke-linejoin="round"/>
<path d="M173.326 135.698H122.998" stroke="black" stroke-linecap="round" stroke-linejoin="round" stroke-dasharray="27.83 27.83"/>
<path d="M121.375 135.698H119.799V134.123" stroke="black" stroke-linecap="round" stroke-linejoin="round"/>
<path d="M119.799 130.913V93.9961" stroke="black" stroke-linecap="round" stroke-linejoin="round" stroke-dasharray="27.52 27.52"/>
<path d="M119.799 92.3908V90.8149H121.375" stroke="black" stroke-linecap="round" stroke-linejoin="round"/>
<path d="M124.622 90.8149H174.95" stroke="black" stroke-linecap="round" stroke-linejoin="round" stroke-dasharray="27.83 27.83"/>
<path d="M176.573 90.8149H178.149V92.3908" stroke="black" stroke-linecap="round" stroke-linejoin="round"/>
<path d="M178.149 95.6011V132.518" stroke="black" stroke-linecap="round" stroke-linejoin="round" stroke-dasharray="27.52 27.52"/>
<path d="M175.272 93.0273H122.676V133.485H175.272V93.0273Z" fill="white" stroke="black" stroke-linecap="round" stroke-linejoin="round"/>
<path d="M161.823 78.7064C154.353 82.1837 147.653 86.1788 147.653 86.1788C147.653 86.1788 140.956 82.1837 133.486 78.7064C126.014 75.2291 126.144 71.6866 126.144 71.6866V43.155C126.144 35.6853 137.348 33.6255 137.348 33.6255H157.958C157.958 33.6255 169.165 35.6853 169.165 43.155V71.6866C169.165 71.6866 169.292 75.2291 161.823 78.7064Z" fill="white" stroke="black" stroke-linecap="round" stroke-linejoin="round"/>
<path d="M147.653 80.8584C144.997 79.3547 140.405 76.8453 135.431 74.5296C132.042 72.9526 131.013 71.6207 130.751 71.1908V43.1554C130.751 40.4191 135.932 38.6868 137.835 38.2334H157.474C159.355 38.6802 164.557 40.4141 164.557 43.1554V71.1892C164.296 71.6196 163.267 72.9522 159.878 74.5297C154.904 76.8454 150.31 79.3548 147.653 80.8584Z" fill="white" stroke="black" stroke-linecap="round" stroke-linejoin="round"/>
<path d="M155.575 55.5538V52.6798C155.576 51.5173 155.348 50.3661 154.904 49.2918C154.46 48.2176 153.808 47.2414 152.987 46.4191C152.165 45.5968 151.189 44.9444 150.115 44.4994C149.041 44.0543 147.89 43.8252 146.728 43.8252C145.565 43.8252 144.414 44.0543 143.341 44.4994C142.267 44.9444 141.291 45.5968 140.469 46.4191C139.648 47.2414 138.996 48.2176 138.552 49.2918C138.108 50.3661 137.88 51.5173 137.88 52.6798V55.5538C137.88 55.9851 138.052 56.3988 138.357 56.7037C138.662 57.0087 139.075 57.18 139.507 57.18C139.938 57.18 140.352 57.0087 140.657 56.7037C140.962 56.3988 141.133 55.9851 141.133 55.5538L141.133 52.6798C141.133 51.1963 141.723 49.7738 142.772 48.7251C143.822 47.6763 145.244 47.0872 146.728 47.0872C148.211 47.0872 149.634 47.6763 150.683 48.7251C151.733 49.7738 152.322 51.1963 152.323 52.6798V55.5538C152.323 55.9851 152.494 56.3988 152.799 56.7037C153.104 57.0087 153.518 57.18 153.949 57.18C154.381 57.18 154.794 57.0087 155.099 56.7037C155.404 56.3988 155.575 55.9851 155.575 55.5538H155.575Z" fill="#E9E9E9" stroke="black" stroke-linecap="round" stroke-linejoin="round"/>
<path d="M120.862 25.5739C122.569 25.5739 123.953 24.1898 123.953 22.4825C123.953 20.7752 122.569 19.3911 120.862 19.3911C119.154 19.3911 117.77 20.7752 117.77 22.4825C117.77 24.1898 119.154 25.5739 120.862 25.5739Z" fill="white" stroke="black" stroke-linecap="round" stroke-linejoin="round"/>
<path d="M132.454 25.5739C134.162 25.5739 135.546 24.1898 135.546 22.4825C135.546 20.7752 134.162 19.3911 132.454 19.3911C130.747 19.3911 129.363 20.7752 129.363 22.4825C129.363 24.1898 130.747 25.5739 132.454 25.5739Z" fill="white" stroke="black" stroke-linecap="round" stroke-linejoin="round"/>
<path d="M144.047 25.5739C145.755 25.5739 147.139 24.1898 147.139 22.4825C147.139 20.7752 145.755 19.3911 144.047 19.3911C142.34 19.3911 140.956 20.7752 140.956 22.4825C140.956 24.1898 142.34 25.5739 144.047 25.5739Z" fill="white" stroke="black" stroke-linecap="round" stroke-linejoin="round"/>
<path d="M59.0553 296.863H274.459C302.846 289.835 305.236 264.066 295.632 247.676C287.401 233.63 272.518 225.937 249.75 233.867C229.976 210.838 196.954 200.289 167.563 207.128C136.592 214.335 122.962 237.754 120.83 241.572C115.038 235.204 96.1528 215.648 80.542 218.912C63.3199 222.512 52.3744 253.408 59.0553 296.863Z" stroke="black" stroke-linecap="round" stroke-linejoin="round"/>
<path d="M79.9453 296.922H264.178C271.605 285.336 271.051 271.455 263.616 263.221C257.716 256.687 249.378 255.808 246.766 255.638C244.765 250.077 239.838 239.212 228.792 232.89C211.389 222.93 185.695 228.197 167.007 247.494C164.476 238.258 155.014 233.226 147.067 235.699C140.435 237.761 135.765 244.767 136.395 252.549C119.333 241.191 97.4015 243.926 85.5622 257.323C76.449 267.636 74.3295 283.118 79.9453 296.922Z" fill="white" stroke="black" stroke-linecap="round" stroke-linejoin="round"/>
<path d="M37.819 296.922H295.632" stroke="black" stroke-linecap="round" stroke-linejoin="round"/>
<path d="M217.035 301.839C216.353 300.406 215.686 299.309 215.686 299.309L206.137 302.024C206.137 302.024 205.455 302.65 204.424 303.658C208.078 305.765 213.336 304.337 217.035 301.839Z" fill="#1C0311" stroke="black" stroke-linecap="round" stroke-linejoin="round"/>
<path d="M204.424 303.658C200.957 307.048 193.536 314.772 194.763 317.658C196.355 321.402 201.971 319.015 205.903 316.441C209.835 313.866 218.728 308.811 218.447 306.096C218.312 304.79 217.667 303.17 217.035 301.839C213.335 304.337 208.078 305.765 204.424 303.658Z" fill="white" stroke="black" stroke-linecap="round" stroke-linejoin="round"/>
<path d="M235.032 302.822C234.83 301.273 234.658 300.23 234.658 300.23L225.859 301.915C225.298 302.614 224.78 303.345 224.307 304.106C227.471 306.569 232.144 305.225 235.032 302.822Z" fill="#1C0311" stroke="black" stroke-linecap="round" stroke-linejoin="round"/>
<path d="M235.032 302.822C232.144 305.225 227.471 306.569 224.307 304.106C223.636 305.176 222.91 306.528 222.489 307.906C221.552 310.964 217.184 324.445 221.24 325.506C225.297 326.567 230.727 323.009 232.162 318.204C233.597 313.398 235.844 312.525 235.595 308.468C235.47 306.437 235.235 304.375 235.032 302.822Z" fill="white" stroke="black" stroke-linecap="round" stroke-linejoin="round"/>
<path d="M191.285 174.194C191.285 174.194 169.534 209.861 170.096 224.746C170.657 239.63 202.018 301.603 205.201 303.101C208.384 304.599 214.562 302.071 216.622 300.199C218.682 298.327 215.218 288.872 213.72 284.284C212.222 279.697 205.888 252.424 196.277 237.197C204.515 225.464 213.751 209.986 215.124 198.627C216.497 187.269 217.667 172.975 217.667 172.975" fill="white"/>
<path d="M191.285 174.194C191.285 174.194 169.534 209.861 170.096 224.746C170.657 239.63 202.018 301.603 205.201 303.101C208.384 304.599 214.562 302.071 216.622 300.199C218.682 298.327 215.218 288.872 213.72 284.284C212.222 279.697 205.888 252.424 196.277 237.197C204.515 225.464 213.751 209.986 215.124 198.627C216.497 187.269 217.667 172.975 217.667 172.975" stroke="black" stroke-linecap="round" stroke-linejoin="round"/>
<path d="M211.005 193.51C211.005 193.51 218.075 236.822 220.531 248.18C221.365 262.41 222.863 299.606 223.986 301.728C225.11 303.85 234.471 305.722 235.969 299.106C237.467 292.491 241.211 275.641 240.088 259.289C239.464 245.684 244.831 232.079 246.079 226.836C247.327 221.594 255.316 187.394 244.332 169.919L209.632 170.418" fill="white"/>
<path d="M211.005 193.51C211.005 193.51 218.075 236.822 220.531 248.18C221.365 262.41 222.863 299.606 223.986 301.728C225.11 303.85 234.471 305.722 235.969 299.106C237.467 292.491 241.211 275.641 240.088 259.289C239.464 245.684 244.831 232.079 246.079 226.836C247.327 221.594 255.316 187.394 244.332 169.919L209.632 170.418" stroke="black" stroke-linecap="round" stroke-linejoin="round"/>
<path d="M206.418 179.811C214.656 179.422 219.056 180.858 223.269 180.428C227.481 179.998 243.918 178.646 246.215 173.471C244.769 169.045 191.908 172.975 191.908 172.975L189.376 177.421C189.376 177.421 190.691 181.777 206.418 179.811Z" fill="#1C0311" stroke="black" stroke-linecap="round" stroke-linejoin="round"/>
<path d="M191.783 149.449C191.783 149.449 192.407 159.06 190.41 163.553C188.413 168.047 186.291 178.282 194.654 178.032C203.017 177.782 211.426 176.684 216.388 178.037C221.35 179.389 242.647 177.19 246.391 170.449C250.136 163.709 253.225 141.897 252.289 137.216C251.353 132.536 247.17 110.255 239.104 108.383C231.039 106.511 201.644 110.255 201.644 110.255" fill="#4A588D"/>
<path d="M191.783 149.449C191.783 149.449 192.407 159.06 190.41 163.553C188.413 168.047 186.291 178.282 194.654 178.032C203.017 177.782 211.426 176.684 216.388 178.037C221.35 179.389 242.647 177.19 246.391 170.449C250.136 163.709 253.225 141.897 252.289 137.216C251.353 132.536 247.17 110.255 239.104 108.383C231.039 106.511 201.644 110.255 201.644 110.255" stroke="black" stroke-linecap="round" stroke-linejoin="round"/>
<path d="M213.716 147.977C241.519 155.934 256.034 141.335 257.906 125.234C259.778 109.132 245.642 102.392 240.681 99.5835C235.719 96.7751 230.571 95.3708 222.239 95.5581C213.907 95.7453 206.262 96.7751 206.262 96.7751C206.262 96.7751 178.677 107.26 177.304 132.848C175.931 158.436 206.637 156.064 221.615 142.584C230.477 135.843 230.102 136.421 230.664 134.174C231.226 131.927 232.63 120.693 228.043 123.455C223.456 126.217 215.405 137.123 201.363 135.999L195.184 134.782C195.184 134.782 193.827 135.063 194.248 134.268C194.669 133.472 197.08 132.091 197.408 130.64C197.735 129.189 197.923 126.638 196.261 126.474C197.033 125.585 198.906 126.053 201.059 127.434C203.212 128.814 212.503 131.943 215.655 132.504" fill="#4A588D"/>
<path d="M213.716 147.977C241.519 155.934 256.034 141.335 257.906 125.234C259.778 109.132 245.642 102.392 240.681 99.5835C235.719 96.7751 230.571 95.3708 222.239 95.5581C213.907 95.7453 206.262 96.7751 206.262 96.7751C206.262 96.7751 178.677 107.26 177.304 132.848C175.931 158.436 206.637 156.064 221.615 142.584C230.477 135.843 230.102 136.421 230.664 134.174C231.226 131.927 232.63 120.693 228.043 123.455C223.456 126.217 215.405 137.123 201.363 135.999L195.184 134.782C195.184 134.782 193.827 135.063 194.248 134.268C194.669 133.472 197.08 132.091 197.408 130.64C197.735 129.189 197.923 126.638 196.261 126.474C197.033 125.585 198.906 126.053 201.059 127.434C203.212 128.814 212.503 131.943 215.655 132.504" stroke="black" stroke-linecap="round" stroke-linejoin="round"/>
<path d="M220.242 89.2234C204.577 89.161 213.502 69.3148 213.502 69.3148L227.544 68.8779L231.039 79.0507L227.793 84.8547C227.793 84.8547 225.734 87.2887 226.233 91.0333C226.732 94.7778 231.039 99.3337 231.039 99.3337C231.039 99.3337 222.426 104.264 211.941 99.0217C213.502 95.4019 215.187 91.9694 215.536 88.3843" fill="white"/>
<path d="M220.242 89.2234C204.577 89.161 213.502 69.3148 213.502 69.3148L227.544 68.8779L231.039 79.0507L227.793 84.8547C227.793 84.8547 225.734 87.2887 226.233 91.0333C226.732 94.7778 231.039 99.3337 231.039 99.3337C231.039 99.3337 222.426 104.264 211.941 99.0217C213.502 95.4019 215.187 91.9694 215.536 88.3843" stroke="black" stroke-linecap="round" stroke-linejoin="round"/>
<path d="M215.304 89.9382C215.304 89.9382 219.306 89.996 220.242 89.2237C216.801 89.0482 215.491 88.5576 215.491 88.5576L215.304 89.9382Z" fill="#1C0311" stroke="black" stroke-linecap="round" stroke-linejoin="round"/>
<path d="M208.712 61.4359C208.712 61.5763 204.265 72.6228 217.277 72.7632C221.677 72.9036 222.613 72.2015 223.55 71.125C224.486 70.0484 226.498 72.3419 225.001 73.9802C226.639 74.4483 228.324 73.8866 228.277 77.0695C228.23 80.2523 225.749 80.58 224.766 80.8608C225.89 84.2309 227.341 85.7756 228.511 85.7756C231.039 85.2607 231.647 85.3075 232.536 79.3162C233.426 73.3249 234.83 69.8144 231.039 66.1166C227.622 62.7465 224.825 61.8104 221.004 62.8401C217.184 63.8699 214.094 64.8996 209.788 60.8742C208.852 60.1253 208.712 61.4359 208.712 61.4359Z" fill="#1C0311" stroke="black" stroke-linecap="round" stroke-linejoin="round"/>
<path d="M230.664 134.174C241.149 130.57 238.902 116.06 238.902 116.06L230.664 134.174Z" fill="#4A588D"/>
<path d="M230.664 134.174C241.149 130.57 238.902 116.06 238.902 116.06" stroke="black" stroke-linecap="round" stroke-linejoin="round"/>
<path d="M196.526 127.761C196.526 127.761 191.752 125.546 187.414 128.042C183.077 130.539 183.233 134.783 184.7 136.499C186.166 138.215 189.568 136.374 190.566 135.531C191.565 134.689 191.908 134.065 192.532 134.002C193.156 133.94 195.434 134.158 195.434 134.158C195.434 134.158 198.042 132.017 198.773 129.384C199.085 128.261 196.526 127.761 196.526 127.761Z" fill="white" stroke="black" stroke-linecap="round" stroke-linejoin="round"/>
<path d="M157.728 54.3677H135.728V70.0012H157.728V54.3677Z" fill="#E9E9E9" stroke="black" stroke-linecap="round" stroke-linejoin="round"/>
<path d="M230.664 124.329C230.664 124.329 234.884 122.113 238.684 124.36C236.157 131.789 234.076 132.884 233.41 132.973L230.914 131.881C231.743 129.508 231.564 126.975 230.664 124.329Z" fill="white" stroke="black" stroke-linecap="round" stroke-linejoin="round"/>
<path d="M230.602 185.521C230.602 185.521 233.473 194.508 243.084 195.632" stroke="black" stroke-linecap="round" stroke-linejoin="round"/>
<path d="M65.1838 113.474V107.564H59.0868C58.8484 106.7 58.5044 105.869 58.0626 105.09L62.3733 100.78L58.1936 96.5998L53.8829 100.911C53.1037 100.469 52.2729 100.125 51.4093 99.8864V93.792H45.5021V99.8864C44.6386 100.125 43.8078 100.469 43.0286 100.911L38.7179 96.5998L34.5382 100.78L38.8489 105.09C38.4071 105.869 38.0631 106.7 37.8247 107.564H31.7277V113.474H37.8247C38.063 114.337 38.407 115.168 38.8489 115.947L34.5382 120.258L38.7179 124.438L43.0286 120.127C43.8078 120.569 44.6386 120.913 45.5021 121.151V127.245H51.4093V121.151C52.2729 120.913 53.1037 120.569 53.8829 120.127L58.1936 124.438L62.3733 120.258L58.0626 115.947C58.5044 115.168 58.8484 114.337 59.0868 113.474H65.1838ZM53.5727 113.474C53.0539 114.372 52.3078 115.118 51.4093 115.637C50.9628 115.897 50.4834 116.096 49.984 116.228C48.9818 116.495 47.927 116.495 46.9248 116.228C46.4262 116.096 45.9477 115.897 45.5022 115.637C44.1457 114.851 43.1547 113.561 42.7451 112.048C42.6136 111.549 42.5471 111.035 42.5472 110.519C42.5466 110.002 42.6141 109.488 42.7478 108.989C42.8801 108.49 43.0788 108.01 43.3388 107.564C43.8583 106.666 44.6043 105.92 45.5022 105.4C45.9477 105.141 46.4262 104.942 46.9248 104.809C47.927 104.542 48.9818 104.542 49.984 104.809C50.4834 104.942 50.9628 105.141 51.4093 105.4C52.3072 105.92 53.0532 106.666 53.5727 107.564C53.8326 108.01 54.0314 108.49 54.1637 108.989C54.2974 109.488 54.3649 110.002 54.3642 110.519C54.3644 111.035 54.2979 111.549 54.1664 112.048C54.032 112.547 53.8324 113.027 53.5727 113.474Z" fill="white" stroke="black" stroke-linecap="round" stroke-linejoin="round"/>
<path d="M72.2608 179.929C81.6041 179.929 89.1783 172.355 89.1783 163.011C89.1783 153.668 81.6041 146.094 72.2608 146.094C62.9175 146.094 55.3433 153.668 55.3433 163.011C55.3433 172.355 62.9175 179.929 72.2608 179.929Z" fill="white" stroke="black" stroke-linecap="round" stroke-linejoin="round"/>
<path d="M61.162 162.619L70.9602 171.231C71.167 171.413 71.4096 171.55 71.6723 171.632C71.9351 171.714 72.2121 171.74 72.4856 171.709C72.7591 171.677 73.023 171.589 73.2603 171.449C73.4975 171.309 73.7028 171.122 73.863 170.898L89.3718 149.21C89.6752 148.785 89.7975 148.257 89.7117 147.742C89.626 147.227 89.3392 146.767 88.9145 146.463C88.4897 146.159 87.9618 146.037 87.4466 146.122C86.9315 146.208 86.4713 146.494 86.1673 146.919L71.9251 166.834L63.7629 159.66C63.3704 159.315 62.8572 159.141 62.3362 159.175C61.8151 159.208 61.3287 159.448 60.984 159.84C60.6393 160.232 60.4644 160.745 60.4978 161.266C60.5312 161.787 60.7701 162.274 61.1621 162.619L61.162 162.619Z" fill="black"/>
<path d="M123.299 257.444C120.615 254.942 117.657 251.798 118.286 248.184C118.76 245.456 121.137 243.548 122.817 241.346C125.138 238.303 126.223 234.25 125.346 230.524C124.469 226.798 121.506 223.545 117.777 222.679C114.049 221.813 109.765 223.608 108.069 227.04C106.74 229.729 107.042 232.891 106.768 235.879C106.493 238.866 105.214 242.219 102.35 243.112C99.958 243.857 97.425 242.577 95.385 241.122C93.3451 239.668 91.3202 237.932 88.8351 237.613C85.9187 237.239 83.0015 239.05 81.5246 241.593C80.0477 244.135 79.8423 247.258 80.3601 250.153C80.878 253.047 82.0635 255.773 83.2395 258.468L75.507 267.326L72.9695 296.863H99.5372C102.276 295.626 104.834 294.001 107.373 292.382C109.47 291.044 111.568 289.706 113.665 288.368C115.085 287.463 116.659 286.306 116.754 284.625C116.945 281.216 111.139 279.898 111.234 276.484C111.273 275.093 112.397 273.924 113.677 273.38C114.958 272.836 116.385 272.783 117.774 272.694C119.902 272.558 122.069 272.307 124.003 271.408C125.937 270.51 127.628 268.86 128.087 266.778C128.877 263.195 125.982 259.946 123.299 257.444Z" fill="#E9E9E9" stroke="black" stroke-linecap="round" stroke-linejoin="round"/>
<path d="M112.053 240.929C112.053 240.929 109.243 257.262 100.51 265.298C91.7773 273.333 90.2754 284.097 90.6509 288.853C91.0263 293.609 86.6459 296.863 86.6459 296.863" stroke="white" stroke-linecap="round" stroke-linejoin="round"/>
<path d="M101.915 281.844C101.915 281.844 94.0775 279.148 90.8623 283.875" stroke="white" stroke-linecap="round" stroke-linejoin="round"/>
<path d="M91.7773 261.053C91.7773 261.053 95.4838 262.852 95.2576 271.66" stroke="white" stroke-linecap="round" stroke-linejoin="round"/>
<path d="M112.929 257.188C112.929 257.188 110.283 261.049 103.659 261.747" stroke="white" stroke-linecap="round" stroke-linejoin="round"/>
<path d="M84.8116 290.054C87.5687 284.643 84.7967 280.349 80.2168 277.365C75.6935 273.159 79.1036 270.398 83.1267 267.841C90.3564 261.528 83.1615 250.026 74.3131 253.805C71.1336 255.344 67.4415 259.758 63.7333 257.177C61.6024 255.49 62.3059 252.198 62.5336 249.489C63.2417 242.697 58.1209 233.015 50.3747 234.258C46.9245 235.121 44.9584 238.841 41.7487 240.373C32.2646 244.492 24.9078 231.142 15.6626 232.011C-2.26101 236.03 3.42524 267.371 29.0964 263.5C31.1474 263.669 33.293 264.445 34.4392 266.154C38.1656 272 28.6313 278.922 32.1943 284.795C35.3004 289.259 41.4672 286.955 45.9781 286.862C52.3076 286.667 54.833 292.193 51.3328 296.863H75.9198C79.6063 295.611 82.9322 293.6 84.8116 290.054Z" fill="white" stroke="black" stroke-linecap="round" stroke-linejoin="round"/>
<path d="M59.706 296.863L61.6772 293.108C70.313 263.258 25.069 247.676 25.069 247.676" fill="white"/>
<path d="M59.706 296.863L61.6772 293.108C70.313 263.258 25.069 247.676 25.069 247.676" stroke="black" stroke-linecap="round" stroke-linejoin="round"/>
<path d="M65.8073 269.641C65.8073 269.641 66.8444 276.301 62.1644 280.199L65.8073 269.641Z" fill="white"/>
<path d="M65.8073 269.641C65.8073 269.641 66.8444 276.301 62.1644 280.199" stroke="black" stroke-linecap="round" stroke-linejoin="round"/>
<path d="M46.7209 247.676C46.8461 247.989 50.5186 254.147 47.5247 259.892L46.7209 247.676Z" fill="white"/>
<path d="M46.7209 247.676C46.8461 247.989 50.5186 254.147 47.5247 259.892" stroke="black" stroke-linecap="round" stroke-linejoin="round"/>
<path d="M47.1591 269.016C47.1591 269.016 55.0698 268.1 57.9355 270.654L47.1591 269.016Z" fill="white"/>
<path d="M47.1591 269.016C47.1591 269.016 55.0698 268.1 57.9355 270.654" stroke="black" stroke-linecap="round" stroke-linejoin="round"/>
<path d="M27.0714 252.307C27.0714 252.307 31.3826 253.689 35.2658 252.185L27.0714 252.307Z" fill="white"/>
<path d="M27.0714 252.307C27.0714 252.307 31.3826 253.689 35.2658 252.185" stroke="black" stroke-linecap="round" stroke-linejoin="round"/>
<path d="M303.155 221.76H271.471V224.806H303.155V221.76Z" fill="#1C0311" stroke="black" stroke-linecap="round" stroke-linejoin="round"/>
<path d="M303.155 224.807H271.471V253.295H303.155V224.807Z" fill="white" stroke="#D7D7D7" stroke-linecap="round" stroke-linejoin="round"/>
<path d="M303.155 253.295H271.471V296.936H303.155V253.295Z" fill="white" stroke="#CECECE" stroke-linecap="round" stroke-linejoin="round"/>
<path d="M303.155 216.414H271.471V221.76H303.155V216.414Z" fill="white" stroke="#D7D7D7" stroke-linecap="round" stroke-linejoin="round"/>
<path d="M277.384 235.909C277.882 235.909 278.286 235.505 278.286 235.007C278.286 234.508 277.882 234.104 277.384 234.104C276.885 234.104 276.481 234.508 276.481 235.007C276.481 235.505 276.885 235.909 277.384 235.909Z" fill="white" stroke="black" stroke-linecap="round" stroke-linejoin="round"/>
<path d="M284.323 235.909C284.822 235.909 285.226 235.505 285.226 235.007C285.226 234.508 284.822 234.104 284.323 234.104C283.825 234.104 283.42 234.508 283.42 235.007C283.42 235.505 283.825 235.909 284.323 235.909Z" fill="white" stroke="black" stroke-linecap="round" stroke-linejoin="round"/>
<path d="M291.262 235.909C291.761 235.909 292.165 235.505 292.165 235.007C292.165 234.508 291.761 234.104 291.262 234.104C290.764 234.104 290.36 234.508 290.36 235.007C290.36 235.505 290.764 235.909 291.262 235.909Z" fill="white" stroke="black" stroke-linecap="round" stroke-linejoin="round"/>
<path d="M298.202 235.909C298.7 235.909 299.104 235.505 299.104 235.007C299.104 234.508 298.7 234.104 298.202 234.104C297.703 234.104 297.299 234.508 297.299 235.007C297.299 235.505 297.703 235.909 298.202 235.909Z" fill="white" stroke="black" stroke-linecap="round" stroke-linejoin="round"/>
<path d="M291.262 247.106C291.761 247.106 292.165 246.702 292.165 246.203C292.165 245.705 291.761 245.301 291.262 245.301C290.764 245.301 290.36 245.705 290.36 246.203C290.36 246.702 290.764 247.106 291.262 247.106Z" fill="white" stroke="black" stroke-linecap="round" stroke-linejoin="round"/>
<path d="M298.202 247.106C298.7 247.106 299.104 246.702 299.104 246.203C299.104 245.705 298.7 245.301 298.202 245.301C297.703 245.301 297.299 245.705 297.299 246.203C297.299 246.702 297.703 247.106 298.202 247.106Z" fill="white" stroke="black" stroke-linecap="round" stroke-linejoin="round"/>
<path d="M298.202 257.867C298.7 257.867 299.104 257.463 299.104 256.965C299.104 256.466 298.7 256.062 298.202 256.062C297.703 256.062 297.299 256.466 297.299 256.965C297.299 257.463 297.703 257.867 298.202 257.867Z" fill="white" stroke="black" stroke-linecap="round" stroke-linejoin="round"/>
<path d="M292.165 256.22H276.481V257.71H292.165V256.22Z" fill="#1C0311" stroke="#D7D7D7" stroke-linecap="round" stroke-linejoin="round"/>
<path d="M298.202 266.759C298.7 266.759 299.104 266.355 299.104 265.856C299.104 265.358 298.7 264.954 298.202 264.954C297.703 264.954 297.299 265.358 297.299 265.856C297.299 266.355 297.703 266.759 298.202 266.759Z" fill="white" stroke="black" stroke-linecap="round" stroke-linejoin="round"/>
<path d="M292.165 265.111H276.481V266.601H292.165V265.111Z" fill="#1C0311" stroke="#D7D7D7" stroke-linecap="round" stroke-linejoin="round"/>
<path d="M298.202 275.65C298.7 275.65 299.104 275.246 299.104 274.747C299.104 274.249 298.7 273.845 298.202 273.845C297.703 273.845 297.299 274.249 297.299 274.747C297.299 275.246 297.703 275.65 298.202 275.65Z" fill="white" stroke="black" stroke-linecap="round" stroke-linejoin="round"/>
<path d="M292.165 274.003H276.481V275.492H292.165V274.003Z" fill="#1C0311" stroke="#D7D7D7" stroke-linecap="round" stroke-linejoin="round"/>
<path d="M298.202 284.542C298.7 284.542 299.104 284.138 299.104 283.639C299.104 283.14 298.7 282.736 298.202 282.736C297.703 282.736 297.299 283.14 297.299 283.639C297.299 284.138 297.703 284.542 298.202 284.542Z" fill="white" stroke="black" stroke-linecap="round" stroke-linejoin="round"/>
<path d="M292.165 282.895H276.481V284.384H292.165V282.895Z" fill="#1C0311" stroke="#D7D7D7" stroke-linecap="round" stroke-linejoin="round"/>
<path d="M337.886 221.76H306.202V224.806H337.886V221.76Z" fill="#1C0311" stroke="black" stroke-linecap="round" stroke-linejoin="round"/>
<path d="M337.886 253.295H306.202V296.936H337.886V253.295Z" fill="white" stroke="#D7D7D7" stroke-linecap="round" stroke-linejoin="round"/>
<path d="M337.886 224.807H306.202V253.295H337.886V224.807Z" fill="white" stroke="#D7D7D7" stroke-linecap="round" stroke-linejoin="round"/>
<path d="M337.886 216.414H306.202V221.76H337.886V216.414Z" fill="white" stroke="#D7D7D7" stroke-linecap="round" stroke-linejoin="round"/>
<path d="M312.114 235.909C312.613 235.909 313.017 235.505 313.017 235.007C313.017 234.508 312.613 234.104 312.114 234.104C311.616 234.104 311.212 234.508 311.212 235.007C311.212 235.505 311.616 235.909 312.114 235.909Z" fill="white" stroke="black" stroke-linecap="round" stroke-linejoin="round"/>
<path d="M319.054 235.909C319.552 235.909 319.957 235.505 319.957 235.007C319.957 234.508 319.552 234.104 319.054 234.104C318.555 234.104 318.151 234.508 318.151 235.007C318.151 235.505 318.555 235.909 319.054 235.909Z" fill="white" stroke="black" stroke-linecap="round" stroke-linejoin="round"/>
<path d="M325.993 235.909C326.492 235.909 326.896 235.505 326.896 235.007C326.896 234.508 326.492 234.104 325.993 234.104C325.495 234.104 325.091 234.508 325.091 235.007C325.091 235.505 325.495 235.909 325.993 235.909Z" fill="white" stroke="black" stroke-linecap="round" stroke-linejoin="round"/>
<path d="M332.933 235.909C333.431 235.909 333.835 235.505 333.835 235.007C333.835 234.508 333.431 234.104 332.933 234.104C332.434 234.104 332.03 234.508 332.03 235.007C332.03 235.505 332.434 235.909 332.933 235.909Z" fill="white" stroke="black" stroke-linecap="round" stroke-linejoin="round"/>
<path d="M325.993 247.106C326.492 247.106 326.896 246.702 326.896 246.203C326.896 245.705 326.492 245.301 325.993 245.301C325.495 245.301 325.091 245.705 325.091 246.203C325.091 246.702 325.495 247.106 325.993 247.106Z" fill="white" stroke="black" stroke-linecap="round" stroke-linejoin="round"/>
<path d="M332.933 247.106C333.431 247.106 333.835 246.702 333.835 246.203C333.835 245.705 333.431 245.301 332.933 245.301C332.434 245.301 332.03 245.705 332.03 246.203C332.03 246.702 332.434 247.106 332.933 247.106Z" fill="white" stroke="black" stroke-linecap="round" stroke-linejoin="round"/>
<path d="M332.933 257.867C333.431 257.867 333.835 257.463 333.835 256.965C333.835 256.466 333.431 256.062 332.933 256.062C332.434 256.062 332.03 256.466 332.03 256.965C332.03 257.463 332.434 257.867 332.933 257.867Z" fill="white" stroke="black" stroke-linecap="round" stroke-linejoin="round"/>
<path d="M326.896 256.22H311.212V257.71H326.896V256.22Z" fill="#1C0311" stroke="#D7D7D7" stroke-linecap="round" stroke-linejoin="round"/>
<path d="M332.933 266.759C333.431 266.759 333.835 266.355 333.835 265.856C333.835 265.358 333.431 264.954 332.933 264.954C332.434 264.954 332.03 265.358 332.03 265.856C332.03 266.355 332.434 266.759 332.933 266.759Z" fill="white" stroke="black" stroke-linecap="round" stroke-linejoin="round"/>
<path d="M326.896 265.111H311.212V266.601H326.896V265.111Z" fill="#1C0311" stroke="#D7D7D7" stroke-linecap="round" stroke-linejoin="round"/>
<path d="M332.933 275.65C333.431 275.65 333.835 275.246 333.835 274.747C333.835 274.249 333.431 273.845 332.933 273.845C332.434 273.845 332.03 274.249 332.03 274.747C332.03 275.246 332.434 275.65 332.933 275.65Z" fill="white" stroke="black" stroke-linecap="round" stroke-linejoin="round"/>
<path d="M326.896 274.003H311.212V275.492H326.896V274.003Z" fill="#1C0311" stroke="#D7D7D7" stroke-linecap="round" stroke-linejoin="round"/>
<path d="M332.933 284.542C333.431 284.542 333.835 284.138 333.835 283.639C333.835 283.14 333.431 282.736 332.933 282.736C332.434 282.736 332.03 283.14 332.03 283.639C332.03 284.138 332.434 284.542 332.933 284.542Z" fill="white" stroke="black" stroke-linecap="round" stroke-linejoin="round"/>
<path d="M326.896 282.895H311.212V284.384H326.896V282.895Z" fill="#1C0311" stroke="#D7D7D7" stroke-linecap="round" stroke-linejoin="round"/>
<path d="M337.886 296.935H344.75V223.283L337.886 216.414V296.935Z" fill="white" stroke="#D7D7D7" stroke-linecap="round" stroke-linejoin="round"/>
<path d="M314.949 146.562C325.617 146.562 334.266 137.914 334.266 127.245C334.266 116.577 325.617 107.929 314.949 107.929C304.281 107.929 295.632 116.577 295.632 127.245C295.632 137.914 304.281 146.562 314.949 146.562Z" fill="#E9E9E9" stroke="black" stroke-linecap="round" stroke-linejoin="round"/>
<path d="M316.746 123.818C317.424 123.423 317.953 122.816 318.251 122.09C318.55 121.364 318.6 120.56 318.396 119.803C318.191 119.045 317.743 118.376 317.12 117.899C316.497 117.422 315.734 117.163 314.949 117.163C314.164 117.163 313.401 117.422 312.778 117.899C312.155 118.376 311.707 119.045 311.502 119.803C311.297 120.56 311.348 121.364 311.646 122.09C311.945 122.816 312.474 123.423 313.152 123.818C311.595 124.218 310.215 125.124 309.23 126.394C308.245 127.664 307.71 129.225 307.71 130.832V134.329H322.188V130.832C322.188 129.225 321.653 127.664 320.668 126.394C319.683 125.124 318.303 124.218 316.746 123.818Z" fill="white" stroke="black" stroke-linecap="round" stroke-linejoin="round"/>
</g>
<defs>
<clipPath id="clip0_210_2926">
<rect width="350" height="350" fill="white"/>
</clipPath>
</defs>
</svg>
